<?xml version="1.0" standalone="no"?><!DOCTYPE svg PUBLIC "-//W3C//DTD SVG 1.1//EN" "http://www.w3.org/Graphics/SVG/1.1/DTD/svg11.dtd"><svg class="icon" width="200px" height="199.80px" viewBox="0 0 1025 1024" version="1.1" xmlns="http://www.w3.org/2000/svg"><path d="M928 237.632H780.8L704 115.712H320l-76.8 121.92H96c-32 0-96 30.464-96 90.56V816.96c0 50.496 48 91.456 89.344 91.456h840.704c41.984 0 94.016-42.944 94.016-90.496V329.088C1024 298.688 992 237.632 928 237.632z m31.936 580.224c0 12.032-20.48 28.8-29.952 29.568H89.472C82.048 846.784 64 833.152 64 816.96V328.192c0-19.328 27.2-29.12 32-29.504H279.424l18.624-29.632 58.112-92.416h313.664l57.152 92.352 17.536 29.632H928c22.592 0 31.68 28.032 31.936 30.464v488.768z m0 0"  /><path d="M512 329.088c-123.776 0-224 95.552-224 213.376S388.288 755.84 512 755.84c123.648 0 224-95.488 224-213.376S635.648 329.088 512 329.088z m0 365.888c-88.192 0-160-68.416-160-152.512S423.744 390.08 512 390.08s160 68.352 160 152.448-71.808 152.448-160 152.448z m0 0"  /></svg>